<?xml version="1.0" encoding="UTF-8" standalone="no"?>
<svg
   xmlns:dc="http://purl.org/dc/elements/1.1/"
   xmlns:cc="http://creativecommons.org/ns#"
   xmlns:rdf="http://www.w3.org/1999/02/22-rdf-syntax-ns#"
   xmlns:svg="http://www.w3.org/2000/svg"
   xmlns="http://www.w3.org/2000/svg"
   version="1.1"
   id="svg10"
   xml:space="preserve"
   width="43.438667"
   height="42.366501"
   viewBox="0 0 43.438667 42.366501"><metadata
     id="metadata16"><rdf:RDF><cc:Work
         rdf:about=""><dc:format>image/svg+xml</dc:format><dc:type
           rdf:resource="http://purl.org/dc/dcmitype/StillImage" /><dc:title></dc:title></cc:Work></rdf:RDF></metadata><defs
     id="defs14" /><g
     id="g18"
     transform="matrix(1.3333333,0,0,-1.3333333,-33.938184,633.41589)"><path
       d="m 41.757399,474.79156 c -8.903174,0 -16.123516,-7.21935 -16.123516,-16.12551 0,-7.12333 4.61987,-13.16766 11.027503,-15.3009 0.806769,-0.1475 1.10077,0.35042 1.10077,0.77806 0,0.38309 -0.01386,1.39675 -0.02178,2.74203 -4.485243,-0.97407 -5.431589,2.16194 -5.431589,2.16194 -0.733517,1.863 -1.790732,2.35894 -1.790732,2.35894 -1.464064,0.9998 0.110869,0.98 0.110869,0.98 1.618489,-0.11384 2.469804,-1.66204 2.469804,-1.66204 1.438327,-2.46386 3.774495,-1.75212 4.693123,-1.33934 0.146506,1.04138 0.563254,1.75212 1.023558,2.15502 -3.580473,0.40783 -7.345069,1.79074 -7.345069,7.9697 0,1.76103 0.628588,3.19936 1.660065,4.32685 -0.166303,0.40784 -0.719658,2.04713 0.158384,4.26747 0,0 1.353196,0.43357 4.433769,-1.65215 1.285882,0.35735 2.665805,0.53555 4.036818,0.54247 1.370024,-0.007 2.748957,-0.18512 4.036819,-0.54247 3.078593,2.08573 4.429809,1.65215 4.429809,1.65215 0.880022,-2.22034 0.326667,-3.85963 0.161354,-4.26747 1.033457,-1.1275 1.657095,-2.56582 1.657095,-4.32685 0,-6.1948 -3.770535,-7.5579 -7.361898,-7.95684 0.578103,-0.49791 1.093842,-1.48188 1.093842,-2.98653 0,-2.15502 -0.0198,-3.89427 -0.0198,-4.42288 0,-0.4316 0.291031,-0.93348 1.108689,-0.77608 6.402683,2.13719 11.018594,8.17658 11.018594,15.29892 0,8.90616 -7.220342,16.12551 -16.126485,16.12551"
       style="fill:#1b1817;fill-opacity:1;fill-rule:evenodd;stroke:none;stroke-width:0.0989901"
       id="path24" /></g></svg>
